<svg
   id="1dff4cb4-53bd-4ffc-acc1-5e8a2ceb72de"
   data-name="Layer 1"
   width="864.81"
   height="658.45"
   viewBox="0 0 864.81 658.45"
   version="1.1"
   sodipodi:docname="cloud_infrastructure.svg"
   inkscape:version="1.1 (c68e22c387, 2021-05-23)"
   xmlns:inkscape="http://www.inkscape.org/namespaces/inkscape"
   xmlns:sodipodi="http://sodipodi.sourceforge.net/DTD/sodipodi-0.dtd"
   xmlns:xlink="http://www.w3.org/1999/xlink"
   xmlns="http://www.w3.org/2000/svg"
   xmlns:svg="http://www.w3.org/2000/svg">
  <sodipodi:namedview
     id="namedview229"
     pagecolor="#ffffff"
     bordercolor="#666666"
     borderopacity="1.0"
     inkscape:pageshadow="2"
     inkscape:pageopacity="0.0"
     inkscape:pagecheckerboard="0"
     showgrid="false"
     inkscape:zoom="0.75480293"
     inkscape:cx="675.01063"
     inkscape:cy="329.22501"
     inkscape:window-width="1366"
     inkscape:window-height="705"
     inkscape:window-x="-8"
     inkscape:window-y="-8"
     inkscape:window-maximized="1"
     inkscape:current-layer="1dff4cb4-53bd-4ffc-acc1-5e8a2ceb72de" />
  <defs
     id="defs130">
    <linearGradient
       id="e6219774-622b-406f-ae45-f26a74b1f5cd"
       x1="477.09"
       y1="779.22"
       x2="477.09"
       y2="120.78"
       gradientUnits="userSpaceOnUse">
      <stop
         offset="0"
         stop-color="gray"
         stop-opacity="0.25"
         id="stop120" />
      <stop
         offset="0.54"
         stop-color="gray"
         stop-opacity="0.12"
         id="stop122" />
      <stop
         offset="1"
         stop-color="gray"
         stop-opacity="0.1"
         id="stop124" />
    </linearGradient>
    <linearGradient
       id="2394db48-9094-48a1-80b4-38413320a0c3"
       x1="309.42"
       y1="623"
       x2="309.42"
       y2="461"
       xlink:href="#e6219774-622b-406f-ae45-f26a74b1f5cd" />
    <linearGradient
       id="894cb520-7283-4f65-92a7-edb841614828"
       x1="773.42"
       y1="549"
       x2="773.42"
       y2="387"
       xlink:href="#e6219774-622b-406f-ae45-f26a74b1f5cd" />
    <linearGradient
       id="43bfcda2-dcfb-4411-a28b-16db327cb63c"
       x1="664.42"
       y1="277"
       x2="664.42"
       y2="115"
       xlink:href="#e6219774-622b-406f-ae45-f26a74b1f5cd" />
  </defs>
  <title
     id="title132">cloud hosting</title>
  <g
     opacity="0.7"
     id="g136">
    <path
       d="M506.4,473.94l-.59-.14V451.2a120.23,120.23,0,0,0,89.79-97.09l.29,0c5.77,0,10.44-8.77,10.44-19.58,0-6.71-1.8-12.62-4.54-16.15q.62-6.2.63-12.57a125,125,0,0,0-38.62-90.49,80.54,80.54,0,0,0-8.87-23.81c-8.9-15.68-23.71-32-17.67-49l-39.1,4-.36-25.76c-12.2,2.19-17.31,16.33-24.55,26.4-17.41,24.22-52.35,27.59-75.46,46.45-7.85,6.41-25.51,25.9-22.19,38.68a124.75,124.75,0,0,0-23.84,73.53q0,6.36.63,12.57c-2.74,3.53-4.54,9.44-4.54,16.15,0,10.82,4.68,19.58,10.44,19.58l.29,0a120.23,120.23,0,0,0,89.79,97.09v22.6l-.59.14C434.32,472.37,298.48,462,328.27,685.4l18.27,67.36,4.07-.16A28.72,28.72,0,0,0,407,757.71c25.87-.09,55.09-.17,70-.17s44.18.09,70,.17a28.72,28.72,0,0,0,56.44-5.11l4.07.16,18.27-67.36C655.71,462,519.86,472.37,506.4,473.94Z"
       transform="translate(-167.6 -120.78)"
       fill="url(#e6219774-622b-406f-ae45-f26a74b1f5cd)"
       id="path134" />
  </g>
  <rect
     y="625.16"
     width="645.61"
     height="21.88"
     fill="#e0e0e0"
     id="rect138" />
  <rect
     x="27.36"
     y="647.05"
     width="590.89"
     height="8.95"
     fill="#e0e0e0"
     id="rect140" />
  <rect
     x="27.36"
     y="647.05"
     width="590.89"
     height="2.98"
     opacity="0.1"
     id="rect142" />
  <path
     d="M361,747.61s86.63-.34,116.09-.34,116.09.34,116.09.34V735H361Z"
     transform="translate(-167.6 -120.78)"
     opacity="0.1"
     id="path144" />
  <path
     d="M593.19,745.08s-86.63-.34-116.09-.34-116.09.34-116.09.34V585.74A116.09,116.09,0,0,1,477.09,469.65h0A116.09,116.09,0,0,1,593.19,585.74Z"
     transform="translate(-167.6 -120.78)"
     fill="#55198b"
     id="path146" />
  <path
     d="M298.5,290.83h22a16.76,16.76,0,0,1,16.76,16.76v46.33a27.76,27.76,0,0,1-27.76,27.76h0a27.76,27.76,0,0,1-27.76-27.76V307.59A16.76,16.76,0,0,1,298.5,290.83Z"
     fill="#fdb797"
     id="path148" />
  <path
     d="M449.33,453.67a116.17,116.17,0,0,0,55.52,0V414.13H449.33Z"
     transform="translate(-167.6 -120.78)"
     opacity="0.1"
     id="path150" />
  <circle
     cx="309.5"
     cy="189.88"
     r="121.14"
     fill="#333"
     id="circle152" />
  <circle
     cx="309.5"
     cy="217.64"
     r="116.09"
     fill="#fdb797"
     id="circle154" />
  <path
     d="M400.44,202.19c22.33-18.23,56.11-21.48,72.94-44.9,7-9.73,11.93-23.4,23.73-25.52l.35,24.9,37.79-3.88c-5.83,16.42,8.48,32.23,17.08,47.38a77.93,77.93,0,0,1,10.09,36.68c-13.12,7.88-29.39-.72-44-5.31-14.2-4.46-29.29-4.92-44.17-5.34-7.63-.22-15.35-.42-22.8,1.25-6.53,1.47-12.64,4.34-18.82,6.93-10.05,4.21-41.79,20.09-51.13,9.85C370.92,232.62,391.82,209.23,400.44,202.19Z"
     transform="translate(-167.6 -120.78)"
     fill="#333"
     id="path156" />
  <path
     d="M406.75,280.2c6.16,3.73,13.4,5.2,20.53,6.18a180.86,180.86,0,0,0,88.11-9.9c4.6,11.66,15.83,19.67,27.77,23.48s24.69,4,37.22,4.15c2.76,0,5.72,0,8-1.53,5.58-3.77,2.88-12.4-.37-18.3L571.84,255c-4.78-8.66-9.7-17.5-17.1-24.06-9.28-8.21-21.6-12.06-33.75-14.49a190.34,190.34,0,0,0-86.64,2.89C404.13,227.47,365.31,255.12,406.75,280.2Z"
     transform="translate(-167.6 -120.78)"
     opacity="0.1"
     id="path158" />
  <path
     d="M406.75,277.68c6.16,3.73,13.4,5.2,20.53,6.18a180.86,180.86,0,0,0,88.11-9.9c4.6,11.66,15.83,19.67,27.77,23.48s24.69,4,37.22,4.15c2.76,0,5.72,0,8-1.53,5.58-3.77,2.88-12.4-.37-18.3l-16.17-29.32c-4.78-8.66-9.7-17.5-17.1-24.06-9.28-8.21-21.6-12.06-33.75-14.49a190.34,190.34,0,0,0-86.64,2.89C404.13,224.94,365.31,252.59,406.75,277.68Z"
     transform="translate(-167.6 -120.78)"
     fill="#333"
     id="path160" />
  <ellipse
     cx="424.33"
     cy="217.64"
     rx="10.1"
     ry="18.93"
     fill="#fdb797"
     id="ellipse162" />
  <ellipse
     cx="194.67"
     cy="217.64"
     rx="10.1"
     ry="18.93"
     fill="#fdb797"
     id="ellipse164" />
  <path
     d="M504.39,473.27S651.23,450.4,620.95,677.54l-17.66,65.11-50.48-2s32.81-75.71,12.62-126.19S504.39,473.27,504.39,473.27Z"
     transform="translate(-167.6 -120.78)"
     fill="#55198b"
     id="path166" />
  <path
     d="M449.8,473.27S303,450.4,333.24,677.54l17.66,65.11,50.48-2s-32.81-75.71-12.62-126.19S449.8,473.27,449.8,473.27Z"
     transform="translate(-167.6 -120.78)"
     fill="#55198b"
     id="path168" />
  <path
     d="M386.24,573.36s-10.1,78,7.57,100.71"
     transform="translate(-167.6 -120.78)"
     opacity="0.1"
     id="path170" />
  <path
     d="M567.95,575.36s10.1,76-7.57,98.71"
     transform="translate(-167.6 -120.78)"
     opacity="0.1"
     id="path172" />
  <circle
     cx="404.08"
     cy="619.68"
     r="27.76"
     fill="#fdb797"
     id="circle174" />
  <circle
     cx="214.91"
     cy="619.68"
     r="27.76"
     fill="#fdb797"
     id="circle176" />
  <g
     opacity="0.7"
     id="g180">
    <rect
       x="218.04"
       y="461"
       width="182.77"
       height="162"
       rx="21.34"
       ry="21.34"
       fill="url(#2394db48-9094-48a1-80b4-38413320a0c3)"
       id="rect178" />
  </g>
  <rect
     x="221.42"
     y="464"
     width="176"
     height="156"
     rx="21.34"
     ry="21.34"
     fill="#e0e0e0"
     id="rect182" />
  <g
     opacity="0.7"
     id="g190">
    <rect
       x="682.04"
       y="387"
       width="182.77"
       height="162"
       rx="21.34"
       ry="21.34"
       fill="url(#894cb520-7283-4f65-92a7-edb841614828)"
       id="rect188" />
  </g>
  <rect
     x="657.41998"
     y="390"
     width="176"
     height="156"
     rx="21.34"
     ry="21.34"
     fill="#e0e0e0"
     id="rect192" />
  <g
     opacity="0.7"
     id="g202">
    <rect
       x="573.04"
       y="115"
       width="182.77"
       height="162"
       rx="21.34"
       ry="21.34"
       fill="url(#43bfcda2-dcfb-4411-a28b-16db327cb63c)"
       id="rect200" />
  </g>
  <rect
     x="576.42"
     y="118"
     width="176"
     height="156"
     rx="21.34"
     ry="21.34"
     fill="#e0e0e0"
     id="rect204" />
  <g
     id="g1446"
     transform="matrix(0.80160744,0,0,0.75210656,584.76945,152.16076)">
    <path
       d="M 0,96.334 H 6.747 V 69.7 l 10.445,23.227 c 1.232,2.8 2.92,3.806 6.228,3.806 3.308,0 4.93,-0.995 6.164,-3.806 L 40.03,69.7 v 26.644 h 6.748 v -26.6 c 0,-2.595 -1.04,-3.85 -3.18,-4.498 -5.125,-1.6 -8.564,-0.216 -10.12,3.244 L 23.228,91.413 13.3,68.48 C 11.808,65.02 8.305,63.636 3.18,65.236 1.038,65.885 0,67.14 0,69.734 Z M 52.386,74.648 h 6.745 v 14.68 c -0.063,0.798 0.256,2.67 3.952,2.727 1.886,0.03 14.554,0 14.672,0 v -17.48 h 6.76 c 0.03,0 -0.007,23.834 -0.006,23.936 0.037,5.878 -7.294,7.155 -10.672,7.254 H 52.533 v -4.54 l 21.342,-10e-4 c 4.342,-0.46 3.83,-2.617 3.83,-3.344 v -1.77 h -14.34 c -6.672,-0.06 -10.92,-2.973 -10.973,-6.323 -0.005,-0.3 0.144,-14.995 -0.004,-15.14 z"
       fill="#00618a"
       id="path1422" />
    <path
       d="m 89.716,96.334 h 19.398 c 2.27,0 4.477,-0.475 6.23,-1.298 2.92,-1.34 4.347,-3.157 4.347,-5.536 v -4.93 c 0,-1.947 -1.622,-3.763 -4.8,-4.974 -1.687,-0.65 -3.763,-0.995 -5.774,-0.995 h -8.175 c -2.724,0 -4.022,-0.822 -4.346,-2.638 -0.065,-0.216 -0.065,-0.4 -0.065,-0.606 v -3.07 c 0,-0.173 0,-0.347 0.065,-0.563 0.324,-1.384 1.038,-1.774 3.438,-2 0.195,0 0.454,-0.044 0.65,-0.044 h 19.268 v -4.497 h -18.944 c -2.725,0 -4.152,0.173 -5.45,0.562 C 91.532,67 89.78,69 89.78,72.46 v 3.936 c 0,3.028 3.44,5.623 9.212,6.228 0.65,0.043 1.298,0.086 1.946,0.086 h 7.007 c 0.26,0 0.52,0 0.714,0.044 2.14,0.173 3.05,0.562 3.698,1.34 0.4,0.4 0.52,0.78 0.52,1.2 v 3.936 c 0,0.476 -0.324,1.082 -0.973,1.6 -0.584,0.52 -1.557,0.865 -2.855,0.952 -0.26,0 -0.454,0.043 -0.713,0.043 h -18.62 v 4.498 z m 72.064,-7.828 c 0,4.628 3.438,7.223 10.38,7.742 a 29.45,29.45 0 0 0 1.946,0.086 h 17.582 v -4.498 h -17.712 c -3.957,0 -5.45,-0.995 -5.45,-3.374 v -23.27 h -6.747 V 88.504 Z M 123.995,88.74 V 72.705 c 0,-4.074 2.86,-6.545 8.516,-7.325 a 12.94,12.94 0 0 1 1.821,-0.13 h 12.807 a 13.87,13.87 0 0 1 1.886,0.13 c 5.656,0.78 8.516,3.25 8.516,7.325 V 88.74 c 0,3.305 -1.215,5.074 -4.015,6.227 l 6.646,6 h -7.834 l -5.377,-4.854 -5.413,0.343 h -7.216 c -1.235,0 -2.535,-0.174 -3.966,-0.564 -4.3,-1.17 -6.37,-3.424 -6.37,-7.152 z m 7.283,-0.4 c 0,0.217 0.065,0.433 0.13,0.694 0.4,1.864 2.145,2.904 4.8,2.904 h 6.13 l -5.63,-5.083 h 7.834 l 4.9,4.433 c 0.905,-0.482 1.5,-1.22 1.7,-2.167 0.065,-0.216 0.065,-0.433 0.065,-0.65 V 73.096 c 0,-0.173 0,-0.4 -0.065,-0.607 -0.4,-1.733 -2.146,-2.73 -4.746,-2.73 H 136.22 c -3,0 -4.94,1.3 -4.94,3.337 v 15.256 z"
       fill="#e48e00"
       id="path1424" />
    <g
       fill="#00618a"
       id="g1430">
      <path
         d="m 197.624,57.73 c -4.147,-0.112 -7.316,0.273 -10.024,1.415 -0.77,0.325 -1.997,0.333 -2.123,1.298 0.423,0.443 0.49,1.105 0.825,1.65 0.647,1.047 1.74,2.45 2.713,3.184 1.064,0.803 2.16,1.663 3.303,2.36 2.03,1.238 4.296,1.945 6.25,3.184 1.152,0.73 2.296,1.65 3.42,2.476 0.555,0.408 0.93,1.042 1.65,1.297 v -0.118 c -0.38,-0.483 -0.477,-1.147 -0.825,-1.65 l -1.533,-1.533 c -1.5,-2 -3.402,-3.737 -5.425,-5.19 -1.613,-1.158 -5.224,-2.722 -5.897,-4.6 l -0.118,-0.118 c 1.144,-0.13 2.483,-0.543 3.54,-0.825 1.773,-0.475 3.358,-0.353 5.19,-0.825 l 2.477,-0.708 v -0.472 c -0.926,-0.95 -1.586,-2.207 -2.595,-3.066 -2.64,-2.25 -5.523,-4.495 -8.49,-6.37 -1.646,-1.04 -3.68,-1.714 -5.425,-2.595 -0.587,-0.296 -1.618,-0.45 -2.005,-0.944 -0.916,-1.168 -1.415,-2.65 -2.122,-4 -1.48,-2.85 -2.934,-5.964 -4.246,-8.963 -0.895,-2.045 -1.48,-4.062 -2.594,-5.897 -5.355,-8.804 -11.12,-14.118 -20.048,-19.34 -1.9,-1.11 -4.187,-1.55 -6.605,-2.123 l -3.892,-0.236 c -0.792,-0.33 -1.616,-1.3 -2.36,-1.77 -2.958,-1.87 -10.545,-5.933 -12.736,-0.6 -1.383,3.373 2.067,6.664 3.302,8.374 0.866,1.2 1.976,2.543 2.594,3.892 0.407,0.886 0.478,1.775 0.826,2.713 0.857,2.3 1.603,4.823 2.712,6.958 0.56,1.08 1.178,2.218 1.887,3.184 0.435,0.593 1.18,0.854 1.297,1.77 -0.728,1.02 -0.77,2.6 -1.18,3.892 -1.843,5.812 -1.148,13.035 1.533,17.337 0.823,1.32 2.76,4.152 5.425,3.066 2.33,-0.95 1.8,-3.89 2.477,-6.486 0.15,-0.59 0.058,-1.02 0.354,-1.415 v 0.118 l 2.123,4.245 c 1.57,2.53 4.36,5.175 6.722,6.96 1.225,0.925 2.2,2.525 3.774,3.066 v -0.118 h -0.118 c -0.307,-0.48 -0.787,-0.677 -1.18,-1.06 -0.923,-0.905 -1.95,-2.03 -2.713,-3.066 -2.15,-2.918 -4.048,-6.11 -5.778,-9.435 -0.826,-1.587 -1.545,-3.338 -2.24,-4.953 -0.268,-0.623 -0.265,-1.564 -0.825,-1.887 -0.763,1.184 -1.887,2.14 -2.477,3.538 -0.944,2.234 -1.066,4.958 -1.415,7.784 -0.207,0.074 -0.115,0.023 -0.236,0.118 -1.642,-0.396 -2.22,-2.087 -2.83,-3.538 -1.544,-3.67 -1.83,-9.576 -0.472,-13.798 0.35,-1.092 1.94,-4.534 1.297,-5.543 -0.307,-1.007 -1.32,-1.6 -1.887,-2.36 -0.7,-0.95 -1.402,-2.204 -1.887,-3.302 -1.264,-2.86 -1.854,-6.07 -3.184,-8.963 -0.636,-1.382 -1.71,-2.78 -2.594,-4 -0.978,-1.36 -2.073,-2.364 -2.83,-4 -0.27,-0.585 -0.636,-1.52 -0.236,-2.123 a 0.93,0.93 0 0 1 0.708,-0.708 c 0.684,-0.527 2.59,0.175 3.302,0.472 1.89,0.786 3.47,1.534 5.072,2.595 0.77,0.5 1.547,1.496 2.476,1.77 h 1.06 c 1.66,0.382 3.52,0.12 5.07,0.59 2.742,0.833 5.198,2.13 7.43,3.538 6.798,4.292 12.355,10.402 16.157,17.7 0.612,1.173 0.876,2.294 1.415,3.538 1.087,2.5 2.456,5.093 3.538,7.547 1.08,2.45 2.13,4.92 3.656,6.958 0.802,1.07 3.9,1.646 5.307,2.24 0.987,0.417 2.603,0.852 3.538,1.415 1.785,1.077 3.515,2.36 5.19,3.54 0.837,0.59 3.41,1.883 3.538,2.948 z"
         id="path1426" />
      <path
         d="m 144.91,12.798 c -0.865,-0.016 -1.476,0.094 -2.123,0.236 v 0.118 h 0.118 c 0.412,0.848 1.14,1.393 1.65,2.123 l 1.18,2.476 0.118,-0.118 c 0.73,-0.515 1.065,-1.338 1.06,-2.595 -0.293,-0.308 -0.336,-0.694 -0.59,-1.062 -0.337,-0.49 -1,-0.768 -1.415,-1.18 z"
         fill-rule="evenodd"
         id="path1428" />
    </g>
    <path
       d="m 194.855,91.708 c 0,2.97 2.347,4.972 4.972,4.972 2.625,0 4.972,-2.002 4.972,-4.972 0,-2.97 -2.347,-4.972 -4.972,-4.972 -2.625,0 -4.972,2.002 -4.972,4.972 z m 8.83,0 c 0,2.254 -1.723,3.938 -3.86,3.938 -2.16,0 -3.86,-1.684 -3.86,-3.938 0,-2.254 1.698,-3.938 3.86,-3.938 2.135,0 3.86,1.684 3.86,3.938 z m -2.52,2.838 h 1.113 l -1.63,-2.492 c 0.875,-0.093 1.537,-0.518 1.537,-1.552 0,-1.154 -0.73,-1.63 -2.134,-1.63 h -2.215 v 5.675 h 0.955 v -2.453 h 0.888 l 1.485,2.453 z m -2.374,-3.25 v -1.63 h 1.1 c 0.57,0 1.26,0.106 1.26,0.77 0,0.795 -0.623,0.862 -1.34,0.862 h -1.02 z"
       fill="#e48e00"
       fill-rule="evenodd"
       id="path1432" />
  </g>
  <g
     id="g1757"
     transform="matrix(1.4989682,0,0,2.3453138,655.00172,405.57863)">
    <path
       d="m 16.147,5.154 1.09,2.05 a 6.15,6.15 0 0 0 0.824,1.024 c 0.913,0.913 1.782,1.87 2.56,2.895 1.848,2.427 3.095,5.122 3.986,8.04 0.534,1.782 0.824,3.608 0.846,5.456 0.09,5.523 -1.804,10.266 -5.634,14.208 a 16.3,16.3 0 0 1 -2.004,1.715 c -0.38,0 -0.557,-0.3 -0.713,-0.557 -0.3,-0.5 -0.468,-1.047 -0.557,-1.603 -0.134,-0.668 -0.223,-1.336 -0.178,-2.027 V 36.043 C 16.345,35.976 16.011,5.311 16.144,5.155 Z"
       fill="#599636"
       id="path1730" />
    <path
       d="m 16.147,5.088 c -0.045,-0.09 -0.09,-0.022 -0.134,0.022 0.022,0.445 -0.134,0.846 -0.38,1.225 -0.267,0.38 -0.624,0.668 -0.98,0.98 -1.982,1.715 -3.54,3.786 -4.788,6.102 -1.648,3.118 -2.516,6.458 -2.76,9.977 -0.11,1.27 0.4,5.746 0.802,7.037 1.09,3.43 3.05,6.302 5.6,8.796 0.624,0.6 1.292,1.158 1.982,1.692 0.2,0 0.223,-0.178 0.267,-0.312 a 6.11,6.11 0 0 0 0.2,-0.869 c 0.2,-1.113 0.312,-2.227 0.445,-3.34 L 16.156,5.088 Z"
       fill="#6cac48"
       id="path1732" />
    <path
       d="m 17.24,41.9 c 0.045,-0.512 0.3,-0.935 0.557,-1.358 -0.267,-0.11 -0.468,-0.334 -0.624,-0.58 -0.134,-0.223 -0.245,-0.5 -0.334,-0.735 -0.312,-0.935 -0.38,-1.915 -0.468,-2.873 v -0.58 c -0.11,0.09 -0.134,0.846 -0.134,0.958 -0.067,1.024 -0.2,2.027 -0.4,3.006 -0.067,0.4 -0.11,0.802 -0.356,1.158 0,0.045 0,0.09 0.022,0.156 0.4,1.18 0.512,2.383 0.58,3.608 v 0.445 c 0,0.534 -0.022,0.423 0.423,0.6 0.178,0.067 0.38,0.09 0.557,0.223 0.134,0 0.156,-0.11 0.156,-0.2 l -0.067,-0.735 v -2.05 c -0.022,-0.356 0.045,-0.713 0.09,-1.047 z"
       fill="#c2bfbf"
       id="path1734" />
    <g
       transform="matrix(1.021124,0,0,1.021124,-4.376266,-1.845946)"
       id="g1742">
      <path
         d="m 37.73,33.72 v 2.077 a 1.45,1.45 0 0 0 0.014,0.246 c 0.027,0.246 0.178,0.396 0.4,0.465 a 4.97,4.97 0 0 0 0.63,0.123 c 0.123,0.014 0.164,0.068 0.178,0.2 0.014,0.465 -0.027,0.52 -0.478,0.492 -1.052,-0.055 -2.105,-0.068 -3.157,0 h -0.1 c -0.328,0.014 -0.355,-0.014 -0.355,-0.342 0,-0.055 0.014,-0.123 0.014,-0.178 0,-0.1 0.068,-0.15 0.164,-0.15 0.22,-0.027 0.424,-0.082 0.63,-0.123 0.287,-0.068 0.45,-0.246 0.478,-0.533 0.04,-0.314 0.04,-0.642 0.04,-0.957 l 0.014,-3.662 a 0.56,0.56 0 0 0 -0.3,-0.52 3.89,3.89 0 0 0 -0.78,-0.328 c -0.082,-0.027 -0.164,-0.04 -0.232,-0.082 -0.2,-0.096 -0.205,-0.273 -0.014,-0.383 0.068,-0.04 0.15,-0.068 0.232,-0.082 a 12.42,12.42 0 0 0 2.432,-0.615 c 0.164,-0.055 0.205,-0.04 0.22,0.123 0.014,0.1 0,0.22 -0.014,0.314 -0.027,0.178 -0.027,0.355 -0.027,0.52 0,0.068 0.014,0.137 0.082,0.178 0.068,0.041 0.137,0 0.2,-0.04 0.287,-0.22 0.574,-0.424 0.888,-0.6 0.45,-0.246 0.93,-0.465 1.45,-0.533 0.63,-0.082 1.175,0.082 1.654,0.492 a 3.1,3.1 0 0 1 0.519,0.601 c 0.137,0.2 0.15,0.205 0.328,0.068 0.52,-0.383 1.066,-0.724 1.654,-0.97 0.615,-0.26 1.244,-0.3 1.872,-0.082 0.642,0.232 1.08,0.683 1.34,1.298 0.22,0.492 0.314,1 0.314,1.53 v 3.662 c 0,0.246 0.1,0.4 0.342,0.52 0.26,0.1 0.547,0.15 0.82,0.205 0.178,0.04 0.178,0.04 0.178,0.22 -0.027,0.45 -0.068,0.478 -0.506,0.45 a 29.42,29.42 0 0 0 -3.293,0 c -0.22,0.014 -0.22,0.014 -0.232,-0.205 v -0.068 c -0.014,-0.37 -0.014,-0.37 0.342,-0.45 l 0.355,-0.096 a 0.55,0.55 0 0 0 0.424,-0.533 l 0.04,-1.025 -0.027,-2.678 a 2.13,2.13 0 0 0 -0.15,-0.697 c -0.342,-0.834 -1.093,-1.134 -1.818,-1.052 -0.547,0.055 -1.025,0.273 -1.476,0.588 -0.096,0.068 -0.164,0.15 -0.15,0.287 0.123,0.875 0.04,1.75 0.055,2.624 v 1.9 c 0,0.342 0.137,0.506 0.465,0.588 l 0.63,0.137 c 0.096,0.014 0.15,0.055 0.15,0.164 v 0.1 c -0.014,0.383 -0.04,0.4 -0.424,0.396 -1.093,-0.055 -2.187,-0.04 -3.266,0 -0.37,0.014 -0.4,-0.027 -0.383,-0.4 0.014,-0.22 0.04,-0.232 0.246,-0.273 l 0.45,-0.082 c 0.4,-0.082 0.547,-0.232 0.574,-0.656 l 0.04,-0.916 -0.027,-2.747 c -0.027,-0.342 -0.1,-0.67 -0.287,-0.984 -0.273,-0.506 -0.7,-0.765 -1.285,-0.793 -0.588,-0.04 -1.107,0.178 -1.6,0.45 -0.342,0.2 -0.492,0.437 -0.465,0.834 v 1.995 z m 25.747,0.083 v 1.927 a 4.13,4.13 0 0 0 0.027,0.41 0.42,0.42 0 0 0 0.328,0.383 3.19,3.19 0 0 0 0.724,0.123 c 0.137,0.014 0.164,0.068 0.178,0.178 v 0.096 c -0.014,0.478 -0.068,0.533 -0.533,0.506 -1.04,-0.068 -2.077,-0.055 -3.116,0 l -0.4,0.014 c -0.082,0 -0.1,-0.04 -0.123,-0.096 a 1.39,1.39 0 0 1 0,-0.574 c 0.014,-0.082 0.068,-0.1 0.15,-0.123 0.2,-0.027 0.37,-0.068 0.56,-0.1 0.342,-0.082 0.465,-0.22 0.478,-0.574 l 0.04,-1.148 v -3.362 c 0,-0.246 -0.096,-0.396 -0.314,-0.506 -0.246,-0.137 -0.506,-0.232 -0.78,-0.328 -0.082,-0.027 -0.164,-0.055 -0.232,-0.096 -0.178,-0.123 -0.2,-0.3 -0.027,-0.437 a 0.49,0.49 0 0 1 0.273,-0.11 c 0.875,-0.137 1.722,-0.328 2.542,-0.656 0.096,-0.04 0.137,-0.014 0.178,0.068 0.041,0.082 0.055,0.178 0.04,0.273 l -0.04,0.642 c 0,0.082 -0.04,0.2 0.027,0.232 0.082,0.055 0.137,-0.068 0.205,-0.1 a 6.09,6.09 0 0 1 1.326,-0.847 c 0.424,-0.2 0.86,-0.328 1.353,-0.3 0.916,0.055 1.572,0.52 1.995,1.326 0.22,0.424 0.314,0.888 0.355,1.367 l 0.04,1 0.014,3.02 c 0.014,0.232 0.096,0.383 0.328,0.465 a 4.47,4.47 0 0 0 0.738,0.178 c 0.22,0.027 0.232,0.068 0.246,0.273 v 0.068 c -0.027,0.465 -0.055,0.478 -0.52,0.45 a 28.59,28.59 0 0 0 -3.061,0 c -0.137,0.014 -0.273,0 -0.4,0.014 -0.082,0 -0.137,-0.014 -0.15,-0.096 -0.027,-0.178 -0.055,-0.355 -0.014,-0.547 0.014,-0.082 0.055,-0.123 0.15,-0.137 l 0.63,-0.1 c 0.22,-0.055 0.342,-0.2 0.37,-0.4 l 0.027,-0.383 -0.014,-2.856 c 0,-0.328 -0.014,-0.656 -0.082,-0.984 -0.164,-0.7 -0.697,-1.2 -1.42,-1.27 -0.63,-0.068 -1.2,0.096 -1.722,0.437 -0.26,0.164 -0.37,0.396 -0.37,0.683 v 2.064 c 0,-0.04 0,-0.04 0.014,-0.04 z"
         fill="#47474a"
         id="path1736" />
      <path
         d="m 103.503,29.935 c -0.15,-0.998 -0.52,-1.886 -1.162,-2.665 a 5.27,5.27 0 0 0 -2.105,-1.558 c -0.86,-0.355 -1.777,-0.465 -2.706,-0.492 -0.383,-0.014 -5.603,0.068 -5.986,0 -0.096,-0.014 -0.164,0.014 -0.22,0.096 -0.068,0.1 -0.137,0.205 -0.178,0.314 -0.164,0.37 -0.164,0.342 0.232,0.396 0.328,0.055 0.642,0.082 0.957,0.178 0.287,0.096 0.492,0.26 0.56,0.574 0.027,0.15 0.055,4.96 0.055,7.202 l -0.055,1.6 c -0.014,0.123 -0.027,0.246 -0.068,0.355 -0.055,0.164 -0.15,0.3 -0.314,0.37 a 1.62,1.62 0 0 1 -0.574,0.15 c -0.37,0.04 -0.424,0.055 -0.547,0.465 l -0.04,0.15 c -0.027,0.178 -0.014,0.205 0.164,0.205 l 4.086,0.04 1.6,-0.027 1.107,-0.137 c 1.257,-0.232 2.378,-0.752 3.334,-1.585 a 5.55,5.55 0 0 0 1.312,-1.722 c 0.383,-0.765 0.547,-1.6 0.588,-2.446 0.068,-0.478 0.04,-0.97 -0.04,-1.462 z m -1.982,1.94 c -0.055,0.875 -0.232,1.722 -0.683,2.487 -0.574,0.998 -1.394,1.695 -2.528,1.94 -0.492,0.1 -0.984,0.15 -1.5,0.082 -0.37,-0.04 -0.724,-0.082 -1.066,-0.205 -0.615,-0.22 -0.834,-0.6 -0.847,-1.2 l -0.014,-8.24 c 0,-0.492 0.22,-0.6 0.574,-0.615 0.533,-0.04 1.08,-0.027 1.613,0.027 a 6.06,6.06 0 0 1 1.654,0.4 3.98,3.98 0 0 1 1.08,0.67 c 0.738,0.63 1.23,1.42 1.5,2.35 0.22,0.752 0.26,1.517 0.22,2.282 z m 13.34,1.34 c 0,-0.082 0,-0.15 -0.014,-0.232 -0.123,-0.752 -0.52,-1.326 -1.134,-1.763 -0.396,-0.287 -0.847,-0.478 -1.312,-0.615 -0.082,-0.027 -0.15,-0.055 -0.232,-0.068 0.014,-0.068 0.055,-0.082 0.096,-0.096 0.273,-0.137 0.533,-0.287 0.765,-0.492 0.424,-0.355 0.7,-0.793 0.847,-1.326 0.082,-0.287 0.082,-0.574 0.055,-0.875 a 2.35,2.35 0 0 0 -0.998,-1.777 c -0.63,-0.465 -1.367,-0.656 -2.132,-0.67 -1.476,-0.027 -2.965,0 -4.44,0 -0.424,0 -0.847,0.027 -1.285,-0.04 -0.082,-0.014 -0.2,-0.04 -0.26,0.055 -0.1,0.178 -0.22,0.355 -0.26,0.56 -0.014,0.096 0.014,0.15 0.123,0.164 l 0.943,0.137 c 0.37,0.055 0.63,0.26 0.656,0.588 a 5.78,5.78 0 0 1 0.04,0.683 l -0.027,2.555 -0.014,5.056 c 0,0.3 -0.04,0.588 -0.096,0.888 a 0.5,0.5 0 0 1 -0.355,0.41 c -0.273,0.082 -0.533,0.164 -0.82,0.164 a 0.34,0.34 0 0 0 -0.355,0.232 c -0.055,0.123 -0.1,0.26 -0.123,0.383 -0.027,0.164 0.014,0.22 0.178,0.2 0.123,-0.014 4.633,0.096 5.48,0.014 0.506,-0.055 1,-0.123 1.503,-0.273 0.86,-0.273 1.654,-0.67 2.282,-1.34 0.52,-0.547 0.82,-1.203 0.847,-1.968 0.04,-0.178 0.04,-0.355 0.04,-0.547 z m -6.628,-5.6 0.04,-1.093 c 0,-0.205 0.082,-0.3 0.287,-0.342 0.328,-0.068 0.656,-0.04 0.984,-0.027 0.328,0.027 0.642,0.068 0.97,0.164 0.6,0.178 1.066,0.52 1.34,1.093 a 1.96,1.96 0 0 1 0.191,0.834 c 0.014,0.383 -0.014,0.752 -0.164,1.12 -0.232,0.506 -0.6,0.834 -1.134,0.93 -0.534,0.096 -2.05,0.055 -2.282,0.055 -0.205,0 -0.22,-0.027 -0.22,-0.232 V 28.83 a 8.79,8.79 0 0 1 -0.014,-1.203 z m 4.44,7.352 c -0.232,0.615 -0.656,1.04 -1.257,1.27 -0.328,0.123 -0.656,0.2 -1,0.178 -0.424,-0.014 -0.847,0 -1.27,-0.082 -0.574,-0.123 -0.834,-0.67 -0.875,-1.066 -0.068,-0.697 -0.027,-1.408 -0.04,-1.927 v -1.804 c 0,-0.22 0.027,-0.287 0.26,-0.287 l 1.285,0.014 0.875,0.1 c 0.615,0.137 1.175,0.37 1.613,0.847 0.355,0.383 0.547,0.847 0.588,1.353 0.04,0.478 0.014,0.943 -0.164,1.394 z"
         fill="#c2bfbf"
         id="path1738" />
      <path
         d="m 77.95,30.85 0.355,0.055 c 0.383,0.014 0.834,-0.123 0.97,-0.656 a 1.38,1.38 0 0 0 0,-0.78 c -0.082,0 -0.123,0.068 -0.164,0.096 -0.205,0.164 -0.437,0.26 -0.683,0.287 -0.492,0.055 -0.984,0.027 -1.462,-0.15 l -0.67,-0.232 a 3.95,3.95 0 0 0 -1.45,-0.19 c -0.697,0.055 -1.353,0.287 -1.968,0.615 -0.656,0.355 -1.12,0.888 -1.34,1.613 -0.123,0.424 -0.137,0.86 -0.082,1.298 0.137,0.998 0.656,1.695 1.585,2.064 0.055,0.014 0.096,0.04 0.15,0.055 0.123,0.068 0.137,0.137 0.027,0.232 l -0.342,0.232 -0.82,0.506 c -0.205,0.123 -0.232,0.22 -0.164,0.437 a 1.43,1.43 0 0 0 0.437,0.656 2.28,2.28 0 0 0 0.629,0.383 c 0.15,0.068 0.15,0.1 0.014,0.22 l -0.78,0.56 c -0.26,0.2 -0.52,0.4 -0.738,0.656 a 1.35,1.35 0 0 0 -0.328,1.23 2.31,2.31 0 0 0 0.71,1.23 2.9,2.9 0 0 0 1.257,0.683 c 0.765,0.22 1.558,0.232 2.337,0.082 1.12,-0.205 2.1,-0.7 2.87,-1.544 0.533,-0.56 0.847,-1.216 0.875,-2 a 1.92,1.92 0 0 0 -1.476,-1.995 l -0.738,-0.137 -2.255,-0.2 c -0.246,-0.014 -0.492,-0.055 -0.697,-0.178 -0.26,-0.164 -0.328,-0.478 -0.164,-0.683 0.123,-0.15 0.273,-0.246 0.465,-0.26 l 0.437,-0.04 a 3.96,3.96 0 0 0 2.309,-1.052 2.42,2.42 0 0 0 0.697,-1.162 c 0.164,-0.588 0.164,-1.2 0.027,-1.8 -0.04,-0.15 -0.027,-0.164 0.164,-0.137 z m -3.35,6.807 c 0.082,0.014 0.164,0 0.246,0 0.574,0.027 1.162,0.068 1.722,0.22 a 3.58,3.58 0 0 1 0.533,0.205 c 0.547,0.3 0.752,0.82 0.683,1.38 -0.082,0.615 -0.424,1.052 -0.957,1.34 -0.355,0.2 -0.752,0.287 -1.162,0.328 -0.15,0.014 -0.287,0 -0.437,0 -0.478,0.014 -0.943,-0.04 -1.394,-0.232 -0.314,-0.123 -0.574,-0.3 -0.806,-0.547 -0.478,-0.478 -0.7,-1.353 0.014,-2.064 0.437,-0.4 0.93,-0.683 1.558,-0.63 z m 1.558,-4.264 c -0.287,0.724 -0.916,0.943 -1.544,0.847 -0.574,-0.082 -0.998,-0.396 -1.27,-0.916 -0.355,-0.697 -0.45,-1.42 -0.246,-2.173 0.15,-0.56 0.492,-0.984 1.093,-1.08 0.765,-0.137 1.5,0.137 1.886,0.902 0.2,0.37 0.287,0.82 0.287,1.462 -0.014,0.26 -0.068,0.615 -0.205,0.957 z M 58.94,32.463 c -0.123,-0.738 -0.396,-1.408 -0.902,-1.968 -0.752,-0.834 -1.708,-1.2 -2.788,-1.203 -0.943,-0.014 -1.83,0.26 -2.624,0.752 a 3.56,3.56 0 0 0 -1.599,2.091 c -0.232,0.793 -0.22,1.6 -0.04,2.405 0.478,2.16 2.146,3.088 4.14,2.952 0.588,-0.04 1.148,-0.232 1.68,-0.492 0.793,-0.37 1.367,-0.957 1.763,-1.736 0.314,-0.642 0.45,-1.326 0.437,-2.105 L 58.939,32.462 Z M 57,35.497 a 1.66,1.66 0 0 1 -1.408,1.148 c -0.6,0.082 -1.162,-0.068 -1.667,-0.424 a 2.84,2.84 0 0 1 -0.861,-1.025 c -0.56,-1.148 -0.656,-2.35 -0.37,-3.58 a 2.05,2.05 0 0 1 0.574,-0.998 c 0.506,-0.465 1.093,-0.574 1.75,-0.437 0.63,0.137 1.107,0.478 1.5,0.998 0.393,0.52 0.574,1.12 0.683,1.75 0.055,0.314 0.055,0.642 0.068,0.847 0,0.656 -0.055,1.2 -0.26,1.722 z m 31.8,-2.924 c -0.1,-0.793 -0.396,-1.517 -0.957,-2.118 -0.738,-0.806 -1.695,-1.148 -2.76,-1.162 -0.916,-0.014 -1.763,0.246 -2.542,0.697 -0.875,0.52 -1.476,1.257 -1.708,2.255 a 4.77,4.77 0 0 0 0.328,3.252 c 0.45,0.957 1.216,1.572 2.228,1.845 1.12,0.3 2.187,0.164 3.225,-0.342 0.902,-0.437 1.544,-1.12 1.913,-2.05 0.22,-0.547 0.3,-1.134 0.314,-1.818 0.014,-0.123 -0.014,-0.342 -0.04,-0.56 z m -1.886,2.747 c -0.22,0.738 -0.683,1.216 -1.462,1.326 -0.574,0.082 -1.12,-0.055 -1.613,-0.383 -0.424,-0.287 -0.724,-0.67 -0.943,-1.12 -0.246,-0.478 -0.383,-0.984 -0.437,-1.503 -0.082,-0.642 -0.082,-1.27 0.068,-1.913 a 1.95,1.95 0 0 1 0.123,-0.369 c 0.383,-0.957 1.23,-1.394 2.228,-1.175 0.67,0.15 1.175,0.52 1.558,1.08 0.37,0.547 0.547,1.148 0.63,1.8 0.04,0.26 0.055,0.533 0.04,0.765 0,0.533 -0.04,1.025 -0.2,1.503 z"
         fill="#47474a"
         id="path1740" />
    </g>
  </g>
  <g
     id="g1995"
     transform="matrix(0.09034076,0,0,0.08974848,243.2437,488.56275)">
    <g
       transform="matrix(0.569,0,0,0.569,199.451,-82.735)"
       id="g1971">
      <linearGradient
         id="a"
         gradientUnits="userSpaceOnUse"
         x1="-2901.9519"
         y1="923.573"
         x2="-2061.249"
         y2="1420.3311"
         gradientTransform="matrix(0.1234,0,0,-0.1234,1158.33,1550.273)">
        <stop
           offset="0"
           stop-color="#909ca9"
           id="stop1950" />
        <stop
           offset="1"
           stop-color="#ededee"
           id="stop1952" />
      </linearGradient>
      <path
         fill="url(#a)"
         d="m 1410.773,814.195 -286.9,93.683 -249.599,110.161 -69.829,18.435 c -17.784,16.916 -36.431,34.049 -56.599,51.397 -22.119,19.082 -42.72,36.433 -58.553,49.008 -17.564,13.88 -43.587,39.902 -56.814,56.38 -19.735,24.721 -35.348,50.96 -42.071,71.13 -11.928,36.433 -6.07,73.297 16.916,107.346 29.492,43.369 88.261,87.606 156.785,117.749 34.916,15.4 93.683,35.132 137.92,46.19 73.512,18.651 215.771,38.819 294.054,41.857 15.828,0.65 37.082,0.65 37.947,0 1.737,-1.088 13.881,-24.289 27.979,-53.129 48.142,-98.238 82.838,-190.402 101.703,-269.119 11.276,-47.706 20.166,-111.246 26.019,-186.492 1.521,-21.036 2.169,-91.514 0.868,-115.37 -1.953,-39.033 -5.423,-70.692 -10.84,-101.703 -0.868,-4.555 -1.088,-8.676 -0.652,-8.892 0.865,-0.65 3.467,-1.517 38.815,-11.712 l -7.153,-16.912 v -0.005 0 z m -65.49,38.386 c 2.602,0 9.539,66.573 11.273,108.646 0.436,8.89 0.216,14.745 -0.216,14.745 -1.733,0 -36.649,-20.599 -61.583,-36.212 -21.687,-13.663 -62.888,-40.988 -69.393,-46.192 -2.173,-1.517 -1.957,-1.733 15.828,-7.807 30.14,-10.194 101.706,-33.18 104.091,-33.18 z m -146.161,48.143 c 1.953,0 6.937,2.816 18.865,10.191 44.671,27.974 105.393,61.805 131.415,73.083 8.022,3.469 8.887,2.166 -9.542,14.746 -39.468,26.889 -88.697,53.344 -148.983,80.018 -10.624,4.771 -19.514,8.456 -19.73,8.456 -0.432,0 0.865,-5.418 2.598,-11.925 14.53,-54.001 22.772,-108.647 23.208,-152.452 0.216,-21.687 0.216,-21.687 2.169,-22.334 -0.436,0.217 -0.22,0.217 0,0.217 z m -30.142,11.492 c 1.297,1.299 0.432,49.877 -1.304,63.104 -3.903,31.662 -9.975,61.153 -19.947,94.335 -2.386,8.018 -4.558,14.745 -4.987,15.177 -0.872,1.083 -30.581,-27.975 -40.339,-39.251 -16.916,-19.518 -30.141,-39.035 -39.9,-58.117 -4.988,-9.759 -12.793,-28.84 -12.144,-29.492 3.469,-2.385 117.753,-46.622 118.621,-45.756 z m -141.826,55.731 c 0.216,0 0.432,0 0.652,0.216 0.432,0.434 1.953,3.905 3.254,7.807 6.937,18.867 22.548,46.624 35.997,64.407 14.746,19.518 34.048,40.334 50.091,53.996 5.207,4.337 9.975,8.456 10.624,9.108 1.304,1.302 1.737,1.083 -33.612,14.53 -40.981,15.613 -85.656,31.226 -136.835,47.706 a 6825.474,6825.474 0 0 0 -36.643,11.928 c -1.955,0.652 -1.303,-0.434 4.335,-9.323 25.371,-39.686 63.97,-117.536 85.657,-172.618 3.687,-9.542 7.373,-19.082 8.025,-21.251 0.868,-3.038 1.95,-4.121 4.768,-5.64 1.518,-0.43 3.038,-0.866 3.687,-0.866 z m -43.367,17.999 c 0.649,0.436 -10.411,23.637 -21.254,44.889 -21.036,40.985 -44.022,81.323 -74.815,130.331 -5.204,8.456 -10.19,16.265 -10.842,17.132 -1.083,1.519 -1.519,1.083 -4.988,-5.638 -7.373,-14.53 -13.447,-33.181 -16.699,-50.313 -3.254,-16.916 -2.602,-46.406 1.086,-64.621 2.816,-13.444 2.602,-13.227 9.107,-16.481 27.757,-14.095 117.537,-56.166 118.405,-55.299 z m 374.073,15.182 v 9.107 c 0,48.359 -5.204,114.716 -12.797,163.077 -1.301,8.456 -2.389,15.393 -2.602,15.613 0,0 -6.288,-1.733 -13.661,-3.905 -32.527,-10.193 -67.875,-25.156 -99.754,-42.718 -21.038,-11.494 -51.612,-30.363 -50.743,-31.231 0.213,-0.215 9.323,-4.986 19.947,-10.625 42.509,-22.118 83.274,-45.972 118.622,-69.609 13.229,-8.892 33.176,-23.202 37.518,-27.107 z m -537.802,64.185 c 0.867,0 0.65,1.735 -0.651,9.542 -0.868,5.64 -1.951,16.049 -2.382,23.202 -1.739,31.662 3.469,55.084 19.082,87.177 4.337,8.892 7.809,16.265 7.589,16.48 -1.519,1.303 -145.074,43.375 -190.183,55.734 -13.444,3.685 -25.152,6.939 -26.024,7.153 -1.515,0.436 -1.733,0.22 -1.083,-3.47 4.987,-31.875 29.276,-73.512 63.104,-108.644 22.554,-23.419 40.554,-37.08 71.347,-54.648 22.119,-12.575 56.165,-31.439 58.767,-32.309 0.002,-0.217 0.218,-0.217 0.434,-0.217 z m 338.295,60.503 c 0.216,-0.216 5.42,2.605 11.708,6.29 46.408,26.891 111.03,51.83 166.108,64.623 l 4.991,1.086 -6.941,3.899 c -28.84,16.049 -123.606,55.515 -220.538,91.732 -14.098,5.202 -27.975,10.409 -30.581,11.492 -2.602,1.083 -4.988,1.735 -4.988,1.519 0,-0.22 3.906,-7.809 8.89,-17.132 27.107,-50.744 54.433,-112.547 68.311,-155.485 1.739,-4.12 2.82,-7.805 3.04,-8.024 z m -34.48,11.278 c 0.22,0.221 -1.517,4.771 -3.687,9.975 -18.865,45.756 -43.59,95.636 -75.249,151.583 -8.022,14.314 -14.746,25.808 -14.966,25.808 -0.213,0 -6.721,-3.906 -14.527,-8.676 -45.976,-28.192 -86.743,-62.888 -113.414,-96.501 l -3.905,-4.771 19.732,-5.422 c 70.696,-19.298 130.762,-40.116 190.4,-65.704 8.459,-3.471 15.4,-6.292 15.616,-6.292 z m 214.253,74.815 c 0,0 0.217,0.217 0,0 0.216,4.988 -10.844,49.661 -19.953,81.969 -7.589,27.107 -14.098,48.361 -26.022,85.874 -5.204,16.485 -9.755,30.143 -9.975,30.143 -0.216,0 -1.517,-0.216 -2.818,-0.647 -64.405,-11.714 -122.089,-27.977 -176.303,-49.661 -15.182,-6.074 -36.866,-15.833 -38.167,-16.916 -0.432,-0.438 12.58,-6.506 29.06,-13.663 98.669,-43.154 201.024,-92.164 236.153,-113.196 4.119,-2.603 7.373,-3.903 8.025,-3.903 z m -494.646,16.916 c 0.434,0.432 -27.107,40.118 -65.709,94.114 -13.444,18.867 -29.057,40.985 -34.911,49.225 -5.856,8.241 -14.746,21.253 -19.734,29.06 l -9.112,14.096 -9.759,-8.24 c -11.494,-9.544 -31.442,-29.927 -40.333,-41.204 -18.651,-23.201 -31.226,-47.706 -36.214,-70.04 -2.386,-10.411 -2.386,-15.618 -0.22,-16.265 3.252,-0.867 61.153,-14.53 115.37,-27.11 30.143,-6.937 65.054,-15.177 77.632,-18.213 12.579,-3.041 22.774,-5.423 22.99,-5.423 z m 27.756,10.626 6.937,7.806 c 31.231,34.914 63.108,60.724 101.708,83.272 6.941,3.906 12.144,7.373 11.708,7.594 -1.514,1.083 -134.016,48.136 -195.385,69.389 -34.478,12.143 -62.888,21.901 -63.102,21.901 -0.216,0 -2.169,-1.299 -4.341,-2.818 l -3.901,-2.82 6.288,-9.106 c 20.383,-29.493 45.976,-61.803 101.707,-129.028 z m 173.053,123.822 c 0.213,-0.215 9.755,3.252 21.464,7.594 28.195,10.624 50.527,17.345 80.456,24.936 36.866,9.326 90.211,18.434 121.657,21.035 4.771,0.432 7.373,0.868 6.505,1.519 -1.521,0.868 -33.395,11.494 -56.816,18.867 -37.302,11.708 -151.149,45.32 -243.962,71.995 -17.132,4.987 -31.879,9.108 -32.746,9.323 -2.166,0.436 -9.325,-1.519 -9.325,-2.386 0,-0.431 5.204,-7.153 11.494,-14.527 31.225,-37.3 62.238,-78.935 88.044,-118.403 7.154,-10.846 13.229,-19.736 13.229,-19.953 z m -38.17,1.087 c 0.216,0.216 -15.179,24.936 -42.066,67.439 -11.496,17.999 -24.291,38.383 -28.846,45.54 -4.337,6.939 -10.842,17.784 -14.527,23.854 l -6.29,11.061 -3.252,-0.868 c -7.809,-2.169 -62.672,-21.471 -77.202,-27.325 -18,-7.157 -36.649,-15.829 -50.529,-23.202 -17.346,-9.326 -39.03,-23.206 -37.297,-23.637 0.433,-0.216 30.143,-8.243 65.922,-17.999 94.984,-25.809 147.678,-40.77 182.161,-51.612 6.29,-1.952 11.71,-3.471 11.926,-3.251 z m 269.985,63.318 h 0.216 c 0.868,2.171 -34.26,99.755 -47.06,130.547 -2.815,6.939 -3.896,8.677 -5.417,8.456 -3.687,-0.213 -54.646,-7.37 -85.66,-11.925 -53.994,-8.24 -144.641,-24.073 -167.409,-29.275 l -5.204,-1.083 32.307,-7.378 c 69.396,-15.613 102.791,-24.069 136.619,-34.478 42.722,-13.011 85.011,-29.276 127.729,-49.225 6.722,-3.037 12.361,-5.422 13.879,-5.639 z"
         id="path1955"
         style="fill:url(#a)" />
      <linearGradient
         id="b"
         gradientUnits="userSpaceOnUse"
         x1="-2882.7"
         y1="10288.81"
         x2="-2206.249"
         y2="10288.81"
         gradientTransform="matrix(0.1234,0,0,-0.1234,1158.33,1550.273)">
        <stop
           offset="0"
           stop-color="#939fab"
           id="stop1957" />
        <stop
           offset="1"
           stop-color="#dcdee1"
           id="stop1959" />
      </linearGradient>
      <path
         fill="url(#b)"
         d="m 1114.983,145.414 c -4.771,-0.647 -81.757,27.11 -131.415,47.275 -67.01,27.327 -119.052,53.351 -151.148,75.899 -11.925,8.461 -26.891,23.422 -29.273,29.276 -0.867,2.169 -1.303,4.771 -1.303,7.373 l 29.06,27.541 69.175,22.119 164.594,29.493 188.228,32.312 1.953,-16.264 c -0.649,0 -1.085,-0.216 -1.73,-0.216 l -24.728,-3.905 -4.984,-8.89 c -25.59,-45.107 -53.781,-101.056 -70.261,-138.789 -12.793,-29.276 -24.938,-63.102 -31.662,-87.391 -3.687,-14.746 -4.119,-15.613 -6.501,-15.829 v -0.005 h -0.01 z m -3.474,11.063 h 0.223 c 0.213,0.214 1.081,6.29 1.95,13.442 3.683,30.364 10.411,59.635 21.035,91.297 8.022,23.855 8.022,22.555 -1.301,19.734 -22.119,-6.07 -121.221,-23.202 -193,-33.177 -11.494,-1.519 -21.253,-3.036 -21.253,-3.252 -0.867,-0.867 51.827,-28.41 75.031,-39.25 29.709,-13.665 111.246,-47.711 117.315,-48.794 z m -209.047,97.15 8.461,2.816 c 45.97,15.616 161.551,37.736 225.31,42.94 7.154,0.651 13.229,1.303 13.442,1.303 0.216,0.216 -5.852,3.469 -13.661,7.154 -30.79,15.397 -64.621,34.264 -88.042,48.794 -6.937,4.335 -13.229,7.807 -14.094,7.807 -0.868,0 -5.42,-0.868 -10.191,-1.519 l -8.674,-1.303 -21.683,-21.253 c -38.167,-37.08 -68.094,-65.704 -79.588,-76.549 z m -8.671,6.721 30.576,38.168 c 16.696,21.035 33.611,41.635 37.301,46.187 3.683,4.557 6.721,8.245 6.505,8.461 -0.868,0.65 -44.236,-7.809 -67.226,-13.011 -23.637,-5.423 -33.395,-8.025 -47.924,-12.577 l -11.928,-3.905 v -3.038 c 0.216,-14.53 18.651,-36.214 49.877,-58.331 z m 259.791,52.046 c 0.869,0 1.95,1.951 4.552,7.806 7.373,16.263 30.364,60.07 35.997,68.526 1.74,2.822 4.771,3.038 -25.802,-1.95 -73.512,-11.93 -97.152,-15.829 -97.152,-16.263 0,-0.216 2.169,-1.735 4.988,-3.254 22.771,-12.575 45.756,-28.624 66.142,-45.756 4.988,-4.121 9.542,-8.024 10.407,-8.676 0.216,-0.433 0.652,-0.649 0.868,-0.433 z"
         id="path1962"
         style="fill:url(#b)" />
      <radialGradient
         id="c"
         cx="-14217.448"
         cy="7277.7051"
         r="898.12"
         gradientTransform="matrix(-0.1185,-0.0178,-0.036,0.237,-198.955,-1314.415)"
         gradientUnits="userSpaceOnUse">
        <stop
           offset="0"
           stop-color="#ee352c"
           id="stop1964" />
        <stop
           offset="1"
           stop-color="#a91d22"
           id="stop1966" />
      </radialGradient>
      <path
         fill="url(#c)"
         d="m 804.66,294.828 c 0,0 -4.768,7.593 -0.215,18.87 2.822,6.937 11.061,15.393 20.384,24.069 0,0 96.5,94.114 108.211,107.561 53.344,61.585 76.549,122.305 78.718,206.012 1.301,53.78 -8.894,101.054 -34.264,155.919 -45.106,98.453 -140.307,207.098 -287.117,327.67 l 21.472,-7.157 c 13.878,-10.411 32.745,-21.467 76.982,-45.756 102.137,-55.952 217.071,-107.346 358.028,-160.258 202.971,-76.335 536.715,-165.681 726.676,-194.736 l 19.737,-3.038 -3.038,-4.771 c -17.345,-26.891 -29.276,-43.587 -43.59,-61.369 -41.633,-51.612 -92.157,-93.463 -153.964,-128.161 -85.007,-47.489 -194.956,-84.571 -334.173,-112.112 -26.239,-5.207 -83.923,-15.181 -130.763,-22.337 -99.321,-15.393 -163.51,-26.021 -234.203,-38.165 -25.37,-4.339 -63.323,-10.843 -88.478,-16.263 -13.011,-2.822 -37.947,-8.676 -57.464,-15.398 -15.613,-6.075 -38.168,-12.147 -42.939,-30.58 z m 55.952,54.216 c 0.214,-0.214 3.683,1.083 8.24,2.602 8.24,2.816 18.865,6.07 31.446,9.542 a 1599.47,1599.47 0 0 0 28.624,7.589 c 13.011,3.251 23.852,6.288 24.068,6.288 1.521,1.519 23.424,71.558 30.797,98.449 2.815,10.195 4.988,18.867 4.771,18.867 -0.223,0.22 -2.605,-3.469 -5.423,-8.456 -25.373,-44.673 -65.491,-89.995 -111.899,-126.428 -6.069,-4.333 -10.624,-8.237 -10.624,-8.453 z m 106.692,29.492 c 1.085,0 5.856,0.651 11.708,1.951 36.866,8.24 103.008,20.818 145.293,27.975 7.157,1.083 12.797,2.387 12.797,2.818 0,0.436 -2.605,1.951 -5.859,3.688 -7.153,3.685 -35.997,20.815 -45.536,27.322 -24.073,16.047 -45.756,33.395 -61.371,49.008 -6.288,6.29 -11.712,11.494 -11.712,11.494 0,0 -1.297,-3.685 -2.386,-8.242 -7.802,-30.143 -24.069,-74.816 -38.815,-106.258 -2.386,-4.986 -4.339,-9.541 -4.339,-9.973 0,0.433 0,0.217 0.22,0.217 z m 187.795,35.781 c 1.301,0.432 3.47,7.806 7.806,24.069 8.025,31.446 11.712,66.576 10.411,99.321 -0.436,9.108 -0.868,17.564 -1.304,18.651 l -0.649,2.166 -11.276,-3.685 c -23.204,-7.373 -60.935,-18.435 -93.245,-27.541 -18.436,-4.988 -33.395,-9.542 -33.395,-9.975 0,-1.303 26.891,-28.192 38.383,-38.383 21.898,-19.303 81.316,-65.275 83.269,-64.623 z m 14.963,2.166 c 0.652,-0.647 89.779,14.746 130.331,22.554 30.145,5.854 73.948,14.963 76.549,16.049 1.301,0.432 -3.254,3.034 -17.784,9.539 -57.248,25.808 -99.754,49.008 -142.036,77.202 -11.06,7.373 -20.386,13.444 -20.602,13.444 -0.216,0 -0.433,-6.287 -0.433,-13.878 0,-41.201 -8.241,-82.838 -23.424,-117.968 -1.517,-3.47 -2.818,-6.722 -2.601,-6.942 z m 230.516,45.542 c 0.652,0.65 -2.169,18.217 -4.771,28.624 -7.806,32.312 -28.84,80.24 -54.643,125.343 -4.558,8.024 -8.677,14.53 -9.114,14.746 -0.429,0.216 -6.285,-3.038 -13.009,-6.941 -25.154,-14.746 -53.778,-28.624 -85.007,-41.637 -8.671,-3.685 -16.263,-6.723 -16.48,-7.153 -1.521,-1.303 68.308,-47.493 105.174,-69.612 29.276,-17.781 76.982,-44.239 77.85,-43.37 z m 16.48,2.601 c 1.953,0 41.421,10.844 62.019,16.916 50.963,15.181 109.512,36.648 147.679,53.996 l 15.828,7.159 -11.056,2.6 c -93.245,21.467 -173.049,46.192 -250.034,77.418 -6.289,2.602 -11.928,4.771 -12.357,4.771 -0.436,0 1.733,-4.987 4.552,-11.061 23.204,-49.225 38.167,-100.62 41.85,-144.427 0.221,-4.121 0.867,-7.372 1.519,-7.372 z m -392.938,90.213 c 0.649,-0.652 30.793,6.506 47.057,11.056 24.721,6.942 77.198,24.505 77.198,25.808 0,0.216 -5.853,5.204 -12.79,11.278 -28.408,23.637 -55.734,48.572 -88.481,80.234 -9.759,9.328 -17.997,16.917 -18.429,16.917 -0.436,0 -0.649,-1.304 -0.436,-3.038 4.987,-36.433 3.906,-83.272 -3.034,-130.763 -0.653,-6.074 -1.302,-11.276 -1.085,-11.492 z m 633.433,0.652 c 0.429,0.431 -13.881,22.984 -22.988,35.777 -13.009,18.649 -32.098,43.375 -75.252,97.588 -22.765,28.622 -48.358,60.936 -56.812,71.778 -8.678,10.842 -15.831,19.948 -16.051,19.948 -0.216,0 -3.031,-3.901 -6.069,-8.671 -24.289,-36.433 -53.349,-68.311 -87.829,-96.935 -6.505,-5.423 -13.658,-11.278 -16.044,-13.013 -2.386,-1.734 -4.339,-3.469 -4.339,-3.685 0,-0.649 36.862,-16.483 64.841,-27.757 49.01,-19.952 115.794,-43.805 165.892,-59.203 26.24,-8.239 54.215,-16.263 54.651,-15.827 z m 16.696,4.334 c 0.865,-0.215 6.072,2.387 12.361,6.07 52.697,30.143 104.305,68.962 145.077,108.864 11.492,11.278 39.9,40.77 39.464,40.986 0,0 -9.975,0.867 -21.683,1.733 -91.296,6.942 -208.178,26.239 -320.511,53.345 -7.589,1.733 -14.31,3.252 -14.746,3.252 -0.429,0 8.025,-8.456 18.653,-18.647 65.922,-63.538 96.067,-103.656 131.628,-175.22 4.986,-10.623 9.325,-19.731 9.757,-20.383 -0.216,0 -0.216,0 0,0 z m -482.936,49.446 c 3.038,0.647 31.229,13.88 52.48,24.503 19.517,9.755 48.794,25.372 50.311,26.671 0.216,0.216 -10.195,5.638 -22.984,11.928 -40.772,20.384 -75.684,39.682 -112.118,61.802 -10.408,6.29 -19.082,11.497 -19.298,11.497 -0.868,0 -0.652,-0.872 5.204,-11.497 19.518,-35.561 35.129,-78.065 44.023,-119.486 0.864,-3.252 1.733,-5.418 2.382,-5.418 z m -28.192,5.202 c 0.652,0.652 -6.721,27.323 -11.273,41.853 -8.894,27.541 -23.856,62.02 -38.383,88.043 -3.474,6.069 -8.677,14.961 -11.496,19.948 l -5.42,8.674 -12.144,-11.707 c -14.094,-13.663 -25.59,-22.12 -40.333,-29.712 -5.859,-3.033 -10.411,-5.638 -10.411,-6.069 0,-1.735 37.082,-35.347 65.49,-59.635 20.383,-17.566 63.321,-52.045 63.97,-51.395 z m 172.404,70.913 10.627,6.937 c 24.282,15.833 52.906,36.866 74.813,55.298 12.357,10.19 36.21,31.662 40.985,36.866 l 2.598,2.822 -17.561,4.986 c -99.321,27.538 -176.087,52.043 -265.649,85.007 -9.975,3.685 -18.433,6.721 -19.085,6.721 -1.297,0 -2.385,1.083 19.954,-19.519 57.251,-52.691 107.992,-110.812 145.726,-167.411 z m -45.324,11.276 c 0.432,0.432 -29.276,42.284 -47.06,65.922 -21.251,28.192 -58.985,75.465 -85.007,106.256 -10.84,12.797 -20.163,23.422 -20.599,23.64 -0.652,0.216 -0.868,-3.036 -0.868,-8.024 0,-26.242 -6.721,-54.216 -18.433,-78.068 -4.988,-9.975 -5.856,-12.361 -4.768,-13.444 4.119,-3.688 67.223,-39.686 107.123,-61.153 26.89,-14.312 68.956,-35.563 69.612,-35.129 z m -274.107,67.225 c 0.652,0 5.64,2.6 11.279,5.638 13.878,7.589 26.239,16.046 37.298,25.156 0.432,0.432 -5.204,4.988 -12.577,10.406 -20.602,14.746 -51.828,38.385 -70.041,52.915 -19.088,15.18 -19.734,15.613 -17.568,12.361 14.314,-21.903 21.467,-34.264 29.06,-50.093 6.721,-14.094 13.442,-30.793 18.213,-45.323 1.734,-6.289 3.904,-11.06 4.336,-11.06 z m 73.083,57.248 c 1.081,-0.214 2.386,1.735 8.238,10.411 12.361,18.429 21.903,43.154 24.292,63.104 l 0.429,4.339 -29.705,11.494 c -53.133,20.599 -102.139,40.985 -135.322,56.162 -9.322,4.339 -25.587,12.144 -36.211,17.352 -10.627,5.418 -19.301,9.539 -19.301,9.323 0,-0.216 6.721,-5.204 14.961,-11.278 64.844,-47.055 121.007,-98.669 163.076,-150.279 4.555,-5.423 8.677,-10.411 9.107,-10.627 z m -33.612,8.242 c 0.868,0.867 -23.853,28.84 -40.768,45.971 -41.853,42.723 -83.273,76.12 -134.669,108.649 -6.505,4.119 -12.359,7.804 -13.011,8.24 -1.519,0.867 0.432,-1.303 22.986,-25.808 14.314,-15.397 25.155,-28.408 37.516,-44.453 8.24,-10.624 9.759,-12.143 21.688,-20.604 31.878,-22.987 105.39,-72.864 106.258,-71.995 z"
         id="path1969"
         style="fill:url(#c)" />
    </g>
    <path
       fill="#231f1f"
       d="m 265.747,900.102 c -2.276,0 -4.553,0.217 -6.809,0.217 -45.975,2.45 -76.983,22.683 -95.113,62.195 -15.506,35.735 -13.813,82.446 0.174,118.4 16.265,35.131 42.547,53.672 86.416,60.675 9.282,1.52 15.506,6.616 33.483,27.606 l 22.12,25.915 h 40.118 l -26.676,-26.892 c -14.746,-14.745 -26.673,-27.584 -26.673,-28.712 0,-1.127 5.641,-3.599 12.469,-5.68 22.51,-6.812 41.203,-24.202 54.279,-50.854 10.583,-21.402 12.102,-28.018 13.619,-54.646 3.969,-79.26 -37.82,-128.813 -107.409,-128.247 z m 35.173,207.27 c -19.517,9.453 -47.857,11.34 -66.356,4.553 -19.127,-7.025 -37.646,-26.889 -45.975,-49.377 -9.259,-24.591 -7.937,-69.956 2.646,-90.386 17.023,-32.528 39.534,-47.49 72.43,-47.49 48.792,0 76.549,29.884 80.171,86.048 2.863,46.885 -12.838,82.058 -42.895,96.632 z M 993.945,967.804 c -16.828,0 -29.709,6.811 -38.385,20.231 l -6.809,10.627 v -27.628 h -29.123 v 165.678 h 29.104 v -52.956 c 0,-48.424 0.604,-54.084 7.371,-67.335 9.326,-18.172 25.371,-27.234 40.879,-22.897 l 10.408,3.036 v -28.712 h -13.445 z m -171.098,-1.519 c -5.705,0 -11.756,0.76 -17.781,2.084 -38.971,10.19 -60.938,47.489 -59.594,85.873 0,32.139 6.244,48.206 21.752,65.057 31.77,26.065 60.502,28.146 99.275,14.161 6.615,-2.819 13.814,-6.072 13.814,-6.072 v -26.065 l -13.814,7.156 c -31.379,13.661 -55.016,13.661 -73.949,-2.43 -12.076,-12.296 -17.391,-27.042 -19.84,-43.868 h 117.426 v -22.339 c 0,-45.539 -27.41,-74.294 -67.313,-73.557 z m -47.492,72.647 c 0,0 4.338,-28.407 20.428,-39.554 7.744,-5.466 16.633,-8.11 25.328,-8.11 8.719,0 17.414,2.818 24.592,8.306 14.748,11.341 17.219,39.143 17.219,39.143 h -87.566 v 0.215 z M 73.244,1009.051 C 41.671,989.923 27.662,976.13 29.375,959.866 c 4.9,-44.997 60.503,-38.773 91.295,-21.749 l 0.219,-30.272 c 0,0 -17.024,-7.373 -41.421,-7.764 -37.429,-0.564 -61.63,11.709 -72.97,36.691 -16.656,36.865 -1.908,64.665 51.396,95.677 29.925,17.412 43.152,32.528 43.152,49.008 0,34.047 -41.05,45.931 -83.401,24.57 -8.716,-4.337 -16.09,-7.959 -16.48,-7.959 -1.519,9.651 -0.736,32.745 -0.736,32.745 0,0 13.012,5.466 32.527,9.236 48.4,9.65 92.445,-13.054 96.608,-49.919 3.622,-34.609 -8.893,-52.761 -56.318,-81.104 z m 1178.454,-43.155 c -5.682,0 -11.711,0.78 -18,2.103 -38.924,10.192 -60.85,47.492 -59.354,85.876 0,32.095 6.225,48.011 21.729,64.838 31.771,26.089 60.504,28.191 99.473,14.184 6.592,-2.818 13.77,-6.026 13.77,-6.026 v -26.109 l -13.791,7.197 c -31.443,13.619 -55.082,13.619 -73.947,-2.471 -12.145,-12.274 -17.414,-26.847 -19.865,-43.871 h 117.232 v -22.336 c 0,-45.321 -27.412,-74.099 -67.313,-73.339 z m -47.492,72.646 c 0,0 4.381,-28.365 20.449,-39.729 7.721,-5.485 16.611,-8.132 25.307,-8.132 8.674,0 17.414,2.819 24.594,8.327 14.746,11.342 17.219,39.338 17.219,39.338 h -87.545 z m -533.809,-29.123 c -31.573,-19.083 -45.54,-32.92 -43.848,-49.185 4.9,-45.02 60.504,-38.773 91.296,-21.749 l 0.218,-30.272 c 0,0 -17.024,-7.374 -41.421,-7.722 -37.429,-0.563 -61.63,11.711 -72.991,36.692 -16.633,36.864 -1.692,64.666 51.437,95.677 29.884,17.393 43.111,32.312 43.111,48.792 0,34.047 -41.029,46.126 -83.381,24.569 -8.674,-4.337 -16.046,-7.916 -16.48,-7.916 -1.519,9.649 -0.736,32.746 -0.736,32.746 0,0 12.858,5.27 32.31,9.237 48.445,9.672 92.51,-13.012 96.653,-49.877 3.6,-34.437 -8.891,-52.587 -56.167,-80.952 v -0.04 z m 752.421,-42.005 c -16.828,0 -29.859,6.829 -38.383,20.254 l -6.811,10.582 v -27.583 h -29.123 V 1136.3 h 29.102 v -52.954 c 0,-48.403 0.584,-54.085 7.375,-67.313 9.324,-18.15 25.369,-27.235 40.875,-22.878 l 10.408,3.035 v -28.775 h -13.443 z m -984.021,41.05 V 902.941 h -29.361 v 233.728 h 123.478 v -27.604 h -94.116 v -100.601 z m 679.015,32.896 -24.201,62.975 -23.27,-63.322 -23.637,-70.173 h -30.055 c 19.475,55.212 40.658,111.376 62.02,165.829 9.26,0.216 18.541,0 27.799,0 l 32.682,-82.058 33.287,-83.75 h -28.732 c 0,0 -12.688,33.266 -25.914,70.521 z M 506.455,839.251 c 4.728,0 8.674,-1.516 11.927,-4.769 3.208,-3.211 4.9,-6.984 4.9,-11.711 0,-4.728 -1.692,-8.675 -4.9,-11.711 -3.253,-3.035 -7.005,-4.555 -11.711,-4.555 -4.769,0 -8.717,1.52 -11.927,4.728 -3.252,3.211 -4.727,7.158 -4.727,11.712 0,4.771 1.519,8.716 4.727,11.711 3.037,3.034 6.984,4.553 11.711,4.553 z m -10.408,-26.889 c 2.818,-2.818 6.245,-4.121 10.625,-4.121 4.121,0 7.548,1.303 10.411,4.121 2.819,2.819 4.337,6.245 4.337,10.409 0,4.163 -1.518,7.764 -4.337,10.582 -2.862,2.817 -6.29,4.163 -10.411,4.163 -4.185,0 -7.59,-1.301 -10.408,-4.163 -2.819,-2.818 -4.337,-6.419 -4.337,-10.582 0,-4.164 1.301,-7.589 4.12,-10.409 z m 7.003,11.928 h 1.908 c 1.346,0 2.668,1.3 3.795,3.773 l 2.279,5.116 h 3.577 l -2.818,-5.683 c -1.149,-2.275 -2.276,-3.598 -3.6,-3.969 1.67,-0.39 2.992,-0.953 3.947,-2.082 0.952,-0.974 1.3,-2.298 1.3,-3.795 0,-1.734 -0.542,-3.034 -1.69,-3.989 -1.302,-1.084 -3.384,-1.669 -6.074,-1.669 h -6.026 v 21.187 h 3.035 v -8.891 z m 0,-9.846 h 2.647 c 1.908,0 3.253,0.39 3.99,0.953 0.716,0.564 0.911,1.303 0.911,2.646 0,2.45 -1.52,3.601 -4.337,3.601 h -3.252 v -7.2 z m -485.018,7.958 c 0,-7.373 -0.216,-12.858 -0.39,-16.09 h 0.174 c 0.758,3.814 1.691,6.657 2.45,8.543 l 28.19,62.975 h 4.728 l 28.19,-63.538 c 0.761,-1.733 1.52,-4.337 2.452,-7.959 h 0.216 c -0.563,6.29 -0.758,11.754 -0.758,16.112 v 55.581 h 9.648 v -82.622 h -12.1 L 54.919,852.87 c -0.955,2.276 -2.278,5.683 -3.969,10.193 h -0.392 c -0.563,-2.234 -1.886,-5.639 -3.772,-9.803 L 21.456,795.207 H 8.598 v 82.621 h 9.281 v -55.385 z m 96.045,0.154 h 8.329 v 51.458 h -8.329 z m 4.164,-18.868 c 1.736,0 3.21,-0.587 4.337,-1.734 1.15,-1.129 1.91,-2.603 1.91,-4.337 0,-1.692 -0.565,-3.211 -1.887,-4.337 -1.171,-1.15 -2.668,-1.737 -4.381,-1.737 -1.69,0 -3.208,0.587 -4.338,1.737 -1.146,1.126 -1.907,2.645 -1.907,4.337 0,1.887 0.586,3.208 1.907,4.337 1.304,1.147 2.647,1.734 4.338,1.734 z m 63.54,71.455 v -9.066 c -4.555,3.405 -9.456,5.098 -14.53,5.098 -6.07,0 -10.995,-2.081 -14.595,-6.07 -3.577,-3.947 -5.485,-9.436 -5.485,-16.266 0,-7.156 1.908,-12.84 5.854,-17.177 3.795,-4.163 8.719,-6.245 14.748,-6.245 4.922,0 9.647,1.52 14.009,4.557 v -9.65 c -3.968,-2.082 -8.5,-3.037 -13.619,-3.037 -9.456,0 -16.827,3.037 -22.335,8.894 -5.466,5.854 -8.285,13.813 -8.285,23.42 0,8.543 2.45,15.722 7.548,21.209 5.312,5.637 12.102,8.5 20.428,8.5 6.438,-0.178 11.707,-1.523 16.262,-4.167 z m 23.831,-27.433 c 0,-6.788 1.518,-12.273 4.337,-16.049 2.647,-3.403 5.855,-5.116 9.65,-5.116 3.21,0 5.486,0.585 7.155,1.908 v -9.846 c -1.3,-0.563 -3.187,-0.758 -5.637,-0.758 -3.405,0 -6.439,1.146 -9.107,3.253 -2.819,2.231 -5.074,5.638 -6.397,9.975 h -0.216 v -12.08 h -9.433 v 58.985 h 9.454 V 847.71 Z m 54.279,31.443 c 8.892,0 16.048,-2.863 21.36,-8.543 5.29,-5.641 7.936,-13.229 7.936,-22.686 0,-9.647 -2.427,-17.021 -7.372,-22.51 -4.9,-5.483 -11.711,-8.132 -20.603,-8.132 -8.892,0 -16.048,2.647 -21.36,7.764 -5.681,5.641 -8.674,13.599 -8.674,23.813 0,8.891 2.429,16.265 7.548,21.751 5.29,5.68 12.295,8.521 21.165,8.521 z m -13.445,-48.055 c 3.6,-3.795 8.329,-5.683 14.182,-5.683 6.074,0 10.627,1.888 14.01,5.683 3.404,3.969 5.097,9.63 5.097,17.197 0,7.198 -1.519,12.859 -4.729,16.654 -3.208,3.969 -7.936,6.071 -14.183,6.071 -6.071,0 -10.777,-2.104 -14.377,-6.071 -3.577,-3.99 -5.291,-9.456 -5.291,-16.654 -0.368,-7.156 1.519,-13.01 5.291,-17.197 z m 84.141,42.916 c 3.599,-3.208 5.509,-7.155 5.509,-12.102 0,-4.337 -1.52,-7.936 -4.338,-10.777 -2.3,-2.275 -5.854,-4.337 -10.994,-6.419 -4.556,-1.906 -7.374,-3.6 -8.893,-4.923 -1.517,-1.517 -2.45,-3.402 -2.45,-6.071 0,-2.45 0.955,-4.337 2.821,-5.855 1.908,-1.516 4.337,-2.253 7.59,-2.253 5.096,0 9.454,1.343 13.443,4.185 v -9.456 c -3.816,-1.906 -7.958,-2.817 -12.686,-2.817 -6.071,0 -11.189,1.671 -14.964,4.899 -3.969,3.212 -5.854,7.375 -5.854,12.274 0,4.337 1.3,7.938 3.771,10.582 2.082,2.256 5.641,4.556 10.583,6.614 4.729,2.083 7.938,3.968 9.65,5.485 1.691,1.52 2.45,3.405 2.45,5.641 0,5.506 -3.772,8.349 -11.146,8.349 -5.682,0 -10.776,-1.866 -15.333,-5.638 v 10.189 c 4.121,2.475 9.066,3.601 14.53,3.601 7.005,-0.368 12.49,-2.081 16.264,-5.486 z m 45.019,-56.73 c -8.893,0 -16.048,2.647 -21.361,7.764 -5.638,5.641 -8.674,13.599 -8.674,23.813 0,8.891 2.452,16.265 7.547,21.751 5.313,5.68 12.295,8.521 21.187,8.521 9.107,0 16.048,-2.861 21.36,-8.545 5.313,-5.637 7.958,-13.227 7.958,-22.683 0,-9.65 -2.472,-17.022 -7.374,-22.509 -5.115,-5.487 -11.927,-8.133 -20.601,-8.133 z m 18.345,31.012 c 0,7.198 -1.518,12.859 -4.727,16.654 -3.21,3.969 -7.938,6.071 -14.184,6.071 -6.074,0 -10.778,-2.104 -14.379,-6.071 -3.577,-3.99 -5.29,-9.456 -5.29,-16.654 0,-7.59 1.888,-13.444 5.683,-17.393 3.576,-3.773 8.306,-5.682 14.182,-5.682 5.854,0 10.561,1.907 13.964,5.682 3.037,4.163 4.729,9.824 4.729,17.393 z m 25.547,29.513 h 9.433 v -51.068 h 13.813 v -7.938 H 428.93 v -9.108 c 0,-8.282 3.208,-12.446 9.845,-12.446 2.234,0 4.511,0.563 6.203,1.518 v -8.521 c -1.692,-0.759 -3.969,-0.932 -6.812,-0.932 -5.095,0 -9.258,1.519 -12.664,4.727 -3.969,3.773 -6.071,8.674 -6.071,15.312 v 9.672 h -9.978 v 7.936 h 9.978 v 50.876 z m 38.75,-16.091 c 0,11.538 5.098,17.414 15.506,17.414 3.774,0 6.614,-0.606 8.891,-1.951 v -8.11 c -1.734,1.302 -3.795,1.91 -6.071,1.91 -3.208,0 -5.464,-0.762 -6.788,-2.475 -1.345,-1.689 -2.103,-4.554 -2.103,-8.501 v -33.286 h 14.961 v -7.938 h -14.961 v -17.39 c -3.253,1.127 -6.44,2.082 -9.456,3.034 v 14.355 h -10.192 v 7.938 h 10.192 v 34.979 z m 1014.88,108.73 c -3.209,-3.034 -7.004,-4.553 -11.709,-4.553 -4.77,0 -8.719,1.519 -11.928,4.771 -3.209,3.188 -4.729,7.155 -4.729,11.711 0,4.728 1.52,8.675 4.705,11.709 3.211,3.036 7.156,4.556 11.928,4.556 4.705,0 8.674,-1.52 11.928,-4.729 3.188,-3.253 4.879,-7.004 4.879,-11.709 -0.174,-4.771 -1.887,-8.719 -5.096,-11.754 z m -1.517,22.338 c -2.82,2.818 -6.246,4.119 -10.41,4.119 -4.119,0 -7.545,-1.301 -10.408,-4.119 -2.818,-2.863 -4.338,-6.441 -4.338,-10.627 0,-4.121 1.301,-7.545 4.164,-10.408 2.818,-2.817 6.225,-4.121 10.582,-4.121 4.121,0 7.549,1.304 10.41,4.121 2.818,2.863 4.336,6.287 4.336,10.408 0,4.382 -1.301,7.764 -4.336,10.627 z m -8.502,-9.651 c 1.691,-0.39 3.037,-1.149 3.969,-2.081 0.955,-0.977 1.303,-2.301 1.303,-3.815 0,-1.692 -0.543,-3.037 -1.691,-3.969 -1.301,-1.085 -3.404,-1.671 -6.07,-1.671 h -6.029 v 21.164 h 3.037 v -8.891 h 1.885 c 1.303,0 2.604,1.3 3.773,3.773 l 2.254,5.096 h 3.602 l -2.818,-5.683 c -0.977,-2.472 -2.105,-3.601 -3.252,-3.97 z m -2.082,-1.907 h -3.252 v -7.155 h 2.668 c 1.887,0 3.209,0.345 3.969,0.932 0.758,0.563 0.932,1.301 0.932,2.646 0,2.45 -1.518,3.579 -4.336,3.579 z M 933.443,816.353 h 2.646 v -21.187 h 7.002 v -2.646 h -16.652 v 2.646 h 7.006 v 21.187 z m 16.047,-15.917 c 0,-2.062 0,-3.753 -0.152,-4.705 0.174,1.126 0.564,1.887 0.738,2.45 l 8.133,18.172 h 1.301 l 8.152,-18.347 c 0.219,-0.563 0.393,-1.301 0.76,-2.275 -0.174,1.887 -0.174,3.401 -0.174,4.553 v 16.048 h 2.82 V 792.52 h -3.406 l -7.371,16.438 c -0.174,0.587 -0.762,1.734 -1.129,3.037 h -0.217 c -0.152,-0.761 -0.541,-1.519 -1.084,-2.818 l -7.373,-16.655 h -3.816 v 23.854 h 2.666 v -15.917 z"
       id="path1973" />
  </g>
</svg>
